<?xml version="1.0" encoding="UTF-8"?>
<!DOCTYPE svg PUBLIC "-//W3C//DTD SVG 1.1//EN" "http://www.w3.org/Graphics/SVG/1.1/DTD/svg11.dtd">
<svg xmlns="http://www.w3.org/2000/svg" version="1.1" width="3840px" height="2160px" style="shape-rendering:geometricPrecision; text-rendering:geometricPrecision; image-rendering:optimizeQuality; fill-rule:evenodd; clip-rule:evenodd" xmlns:xlink="http://www.w3.org/1999/xlink">
<g><path style="opacity:1" fill="#ed421f" d="M 1547.5,34.5 C 1678.18,35.1744 1809.01,35.8411 1940,36.5C 1957.33,35.8965 1974.49,35.2299 1991.5,34.5C 2029.8,34.869 2067.8,38.369 2105.5,45C 2239.18,74.1782 2282.68,153.345 2236,282.5C 2217.38,322.136 2190.88,355.636 2156.5,383C 2109.8,418.849 2057.8,444.349 2000.5,459.5C 2000.5,460.5 2000.5,461.5 2000.5,462.5C 2062.43,466.049 2113.59,491.049 2154,537.5C 2191.28,587.718 2201.28,643.052 2184,703.5C 2169.64,747.586 2146.14,785.919 2113.5,818.5C 2065.32,865.79 2009.32,901.29 1945.5,925C 1893.92,944.375 1840.59,955.375 1785.5,958C 1692.46,962.608 1599.46,967.441 1506.5,972.5C 1505.5,969.16 1505,965.827 1505,962.5C 1692.61,906.139 1880.44,850.472 2068.5,795.5C 2069.14,788.852 2069.47,782.186 2069.5,775.5C 1878.42,824.413 1687.42,873.747 1496.5,923.5C 1495.56,923.392 1494.72,923.059 1494,922.5C 1492.28,919.721 1491.11,916.721 1490.5,913.5C 1691.36,803.47 1891.86,692.804 2092,581.5C 2091.01,575.545 2089.01,569.878 2086,564.5C 1881.5,670.837 1676.66,776.837 1471.5,882.5C 1469.33,880.158 1467.33,877.658 1465.5,875C 1699.09,655.419 1933.42,436.419 2168.5,218C 2172.88,213.955 2176.88,209.622 2180.5,205C 2178.1,199.527 2175.43,194.194 2172.5,189C 2171.83,188.333 2171.17,188.333 2170.5,189C 1926.33,409.833 1682.17,630.667 1438,851.5C 1435,849.326 1432.16,846.992 1429.5,844.5C 1603.92,592.659 1778.59,340.992 1953.5,89.5C 1946.18,88.6634 1938.84,88.83 1931.5,90C 1752.33,336.5 1573.17,583 1394,829.5C 1391.65,828.286 1389.15,827.452 1386.5,827C 1385.48,825.951 1385.32,824.784 1386,823.5C 1489.5,578.5 1593,333.5 1696.5,88.5C 1690.19,87.3361 1683.86,87.1694 1677.5,88C 1565.21,331.911 1453.21,575.911 1341.5,820C 1337.18,820.499 1332.85,820.666 1328.5,820.5C 1400.15,559.056 1472.31,297.722 1545,36.5C 1545.42,35.244 1546.25,34.5774 1547.5,34.5 Z"/></g>
<g><path style="opacity:0.827" fill="#fdf6f0" d="M 1547.5,34.5 C 1695.5,34.5 1843.5,34.5 1991.5,34.5C 1974.49,35.2299 1957.33,35.8965 1940,36.5C 1809.01,35.8411 1678.18,35.1744 1547.5,34.5 Z"/></g>
<g><path style="opacity:1" fill="#ec421e" d="M 2237.5,75.5 C 2287.63,75.014 2336.97,81.1807 2385.5,94C 2495.97,129.769 2533.14,203.269 2497,314.5C 2486.05,343.748 2470.05,369.748 2449,392.5C 2410.22,431.991 2365.06,462.157 2313.5,483C 2294.66,490.279 2275.66,496.946 2256.5,503C 2339.2,512.067 2396.36,554.901 2428,631.5C 2443.63,677.62 2443.3,723.62 2427,769.5C 2401.58,836.908 2359.08,890.741 2299.5,931C 2206.45,991.524 2104.12,1021.19 1992.5,1020C 1828.89,1020.32 1665.56,1020.82 1502.5,1021.5C 1503.63,1015.86 1504.63,1010.19 1505.5,1004.5C 1630.83,1000.81 1756.17,996.976 1881.5,993C 1993.83,992.555 2095.16,959.555 2185.5,894C 2230.6,860.238 2265.44,818.072 2290,767.5C 2314.18,715.529 2316.85,662.529 2298,608.5C 2271.41,550.42 2226.91,513.92 2164.5,499C 2151.29,496.076 2137.95,493.909 2124.5,492.5C 2178.92,476.623 2228.59,451.79 2273.5,418C 2310.85,389.985 2339.35,354.818 2359,312.5C 2375.33,273.208 2380.33,232.542 2374,190.5C 2364.68,152.179 2342.84,123.345 2308.5,104C 2285.79,91.6513 2261.79,82.6513 2236.5,77C 2237.06,76.6174 2237.39,76.1174 2237.5,75.5 Z"/></g>
<g><path style="opacity:1" fill="#ec421e" d="M 905.5,1218.5 C 906.117,1218.61 906.617,1218.94 907,1219.5C 916.634,1262.67 926.134,1305.84 935.5,1349C 1043.5,1349.5 1151.5,1349.67 1259.5,1349.5C 1256.84,1358.49 1254.17,1367.49 1251.5,1376.5C 1213.83,1376.5 1176.17,1376.5 1138.5,1376.5C 1133.84,1394.79 1129.68,1413.12 1126,1431.5C 1135.47,1420.68 1147.3,1413.84 1161.5,1411C 1176.02,1408.47 1190.35,1409.13 1204.5,1413C 1216.32,1418.44 1223.48,1427.6 1226,1440.5C 1226.91,1472.97 1221.24,1504.31 1209,1534.5C 1191.97,1576.6 1161.14,1593.43 1116.5,1585C 1113.75,1583.88 1111.25,1582.38 1109,1580.5C 1109.49,1575.16 1110.33,1569.83 1111.5,1564.5C 1124.81,1566.76 1134.97,1562.1 1142,1550.5C 1146.31,1542.57 1149.65,1534.23 1152,1525.5C 1159.05,1503.3 1163.88,1480.63 1166.5,1457.5C 1165.62,1441.49 1157.29,1435.66 1141.5,1440C 1134.18,1442.98 1128.35,1447.81 1124,1454.5C 1120.45,1460.93 1117.45,1467.6 1115,1474.5C 1102.68,1522.11 1090.51,1569.78 1078.5,1617.5C 1060.18,1618.5 1041.85,1618.83 1023.5,1618.5C 1028.02,1601.08 1032.52,1583.75 1037,1566.5C 1016.04,1585.87 991.536,1592.37 963.5,1586C 950.333,1582.17 941.833,1573.67 938,1560.5C 934.809,1543.06 935.475,1525.72 940,1508.5C 944.346,1485.79 951.679,1464.13 962,1443.5C 980.913,1414.96 1007.41,1403.46 1041.5,1409C 1053.64,1410.82 1062.81,1416.99 1069,1427.5C 1073.58,1410.67 1078.08,1393.84 1082.5,1377C 1032.26,1376.17 982.096,1376.34 932,1377.5C 911.339,1457.81 890.839,1538.14 870.5,1618.5C 851.821,1618.83 833.155,1618.5 814.5,1617.5C 819.581,1600.57 824.081,1583.57 828,1566.5C 815.575,1577.43 801.075,1583.93 784.5,1586C 770.754,1588.27 757.088,1587.94 743.5,1585C 731.359,1580.86 723.193,1572.69 719,1560.5C 715.167,1544 715.167,1527.33 719,1510.5C 723.023,1483.42 732.356,1458.42 747,1435.5C 766.136,1413.34 790.302,1404.17 819.5,1408C 830.422,1408.97 840.756,1411.97 850.5,1417C 854.34,1419.67 857.673,1422.84 860.5,1426.5C 865.455,1410.01 869.789,1393.35 873.5,1376.5C 828.5,1376.5 783.5,1376.5 738.5,1376.5C 740.956,1367.8 743.623,1359.13 746.5,1350.5C 777.495,1349.67 808.495,1349.17 839.5,1349C 823.38,1329.26 807.38,1309.42 791.5,1289.5C 804.833,1279.83 818.167,1270.17 831.5,1260.5C 849.23,1289.42 866.396,1318.75 883,1348.5C 888.416,1349.64 893.916,1349.81 899.5,1349C 885.346,1313.37 871.679,1277.54 858.5,1241.5C 858.818,1240.35 859.484,1239.52 860.5,1239C 875.813,1232.63 890.813,1225.8 905.5,1218.5 Z M 820.5,1437.5 C 829.337,1436.47 837.671,1437.97 845.5,1442C 851.004,1448.52 852.837,1456.02 851,1464.5C 848.442,1479.4 844.942,1494.07 840.5,1508.5C 825.694,1490.23 811.36,1471.57 797.5,1452.5C 803.14,1444.19 810.806,1439.19 820.5,1437.5 Z M 1040.5,1437.5 C 1053.87,1436.2 1060.53,1442.2 1060.5,1455.5C 1056.43,1485.53 1048.6,1514.53 1037,1542.5C 1029.87,1555.65 1019.03,1560.48 1004.5,1557C 1000.51,1555.01 998.01,1551.84 997,1547.5C 996.333,1541.5 996.333,1535.5 997,1529.5C 1001.15,1504.9 1007.48,1480.9 1016,1457.5C 1020.52,1446.18 1028.69,1439.52 1040.5,1437.5 Z M 785.5,1479.5 C 801.018,1498.19 816.018,1517.36 830.5,1537C 819.096,1556.58 802.762,1562.25 781.5,1554C 778.894,1552.06 777.061,1549.56 776,1546.5C 774.516,1540.24 774.182,1533.9 775,1527.5C 777.672,1511.3 781.172,1495.3 785.5,1479.5 Z"/></g>
<g><path style="opacity:1" fill="#ec421e" d="M 2672.5,1218.5 C 2673.97,1219.35 2674.8,1220.68 2675,1222.5C 2684.36,1264.8 2693.53,1307.13 2702.5,1349.5C 2826.83,1349.5 2951.17,1349.5 3075.5,1349.5C 3073.69,1358.59 3071.02,1367.42 3067.5,1376C 3056.75,1375.87 3046.25,1376.7 3036,1378.5C 3015.49,1458.53 2994.99,1538.53 2974.5,1618.5C 2956.17,1618.5 2937.83,1618.5 2919.5,1618.5C 2939.52,1537.76 2959.85,1457.09 2980.5,1376.5C 2964.49,1376.17 2948.49,1376.5 2932.5,1377.5C 2925.93,1397.27 2919.6,1417.11 2913.5,1437C 2884.79,1437.04 2856.13,1437.71 2827.5,1439C 2817.55,1443.96 2810.71,1451.8 2807,1462.5C 2795.44,1498.96 2786.94,1536.13 2781.5,1574C 2781.92,1593.05 2791.59,1601.05 2810.5,1598C 2812.22,1597.65 2813.88,1597.15 2815.5,1596.5C 2815.41,1579.84 2819.25,1564.18 2827,1549.5C 2845,1524.95 2868.17,1518.45 2896.5,1530C 2903.82,1536.62 2906.32,1544.78 2904,1554.5C 2901.27,1572.86 2892.44,1587.36 2877.5,1598C 2871.59,1601.12 2865.59,1603.96 2859.5,1606.5C 2869.39,1620.79 2883.06,1628.95 2900.5,1631C 2881.24,1642.21 2861.74,1653.05 2842,1663.5C 2829.33,1650.17 2820.83,1634.51 2816.5,1616.5C 2734.5,1635.34 2703,1603.67 2722,1521.5C 2726.26,1498.45 2733.59,1476.45 2744,1455.5C 2763.11,1423.03 2791.61,1408.69 2829.5,1412.5C 2840.85,1412.81 2852.18,1412.97 2863.5,1413C 2867.75,1401.09 2871.08,1388.92 2873.5,1376.5C 2821.5,1376.17 2769.5,1376.5 2717.5,1377.5C 2696.85,1457.11 2676.35,1536.78 2656,1616.5C 2637.74,1618.48 2619.24,1619.15 2600.5,1618.5C 2620.83,1537.83 2641.17,1457.17 2661.5,1376.5C 2646.82,1376.17 2632.15,1376.5 2617.5,1377.5C 2610.24,1405.38 2602.91,1433.21 2595.5,1461C 2576.82,1461.83 2558.16,1461.67 2539.5,1460.5C 2543.21,1447.08 2538.21,1439.24 2524.5,1437C 2514.45,1436.14 2504.45,1436.47 2494.5,1438C 2487.17,1441.67 2482.34,1447.5 2480,1455.5C 2475.16,1466.36 2473.16,1477.7 2474,1489.5C 2476.22,1495.72 2480.72,1499.22 2487.5,1500C 2509.83,1500.33 2532.17,1500.67 2554.5,1501C 2571.09,1501.42 2579.42,1509.92 2579.5,1526.5C 2578.16,1550.19 2571.99,1572.52 2561,1593.5C 2552.19,1607.83 2539.35,1616 2522.5,1618C 2490.19,1619.59 2457.86,1619.92 2425.5,1619C 2413.57,1619.24 2402.57,1616.24 2392.5,1610C 2385.33,1603.65 2381.66,1595.65 2381.5,1586C 2382.3,1574.64 2384.64,1563.64 2388.5,1553C 2409.84,1552.17 2431.17,1552.33 2452.5,1553.5C 2449.71,1560.65 2447.55,1567.98 2446,1575.5C 2444.05,1583.32 2446.55,1589.16 2453.5,1593C 2466.29,1596.55 2478.96,1596.22 2491.5,1592C 2497.9,1587.26 2502.4,1581.09 2505,1573.5C 2508.13,1564.64 2510.8,1555.64 2513,1546.5C 2515.71,1536.91 2512.54,1530.41 2503.5,1527C 2498.23,1525.89 2492.9,1525.23 2487.5,1525C 2467.47,1524.88 2447.47,1524.22 2427.5,1523C 2414.8,1518.63 2408.46,1509.63 2408.5,1496C 2410.7,1473.03 2416.87,1451.19 2427,1430.5C 2434.81,1418.5 2445.97,1412 2460.5,1411C 2481.17,1409.03 2501.84,1409.03 2522.5,1411C 2531.44,1411.64 2539.27,1414.81 2546,1420.5C 2547,1422.17 2548,1423.83 2549,1425.5C 2553.3,1409.28 2557.14,1392.95 2560.5,1376.5C 2505.83,1376.17 2451.16,1376.5 2396.5,1377.5C 2375.84,1457.13 2355.34,1536.8 2335,1616.5C 2316.74,1618.48 2298.24,1619.15 2279.5,1618.5C 2283.68,1601.11 2287.85,1583.78 2292,1566.5C 2279.58,1577.43 2265.08,1583.93 2248.5,1586C 2192.57,1594.06 2170.07,1570.23 2181,1514.5C 2185.21,1487.18 2194.55,1461.85 2209,1438.5C 2230.01,1412.27 2257.18,1402.44 2290.5,1409C 2304.71,1410.35 2316.21,1416.52 2325,1427.5C 2329.33,1410.51 2333.5,1393.51 2337.5,1376.5C 2292.83,1376.5 2248.17,1376.5 2203.5,1376.5C 2205.85,1367.75 2208.52,1359.09 2211.5,1350.5C 2343.17,1349.67 2474.83,1349.17 2606.5,1349C 2590.88,1329.04 2574.88,1309.38 2558.5,1290C 2571.66,1279.92 2584.99,1270.09 2598.5,1260.5C 2616.41,1289.31 2633.58,1318.64 2650,1348.5C 2655.42,1349.64 2660.92,1349.81 2666.5,1349C 2652.34,1312.67 2638.67,1276.17 2625.5,1239.5C 2641.58,1233.29 2657.25,1226.29 2672.5,1218.5 Z M 2284.5,1437.5 C 2310.53,1434.7 2320.37,1446.04 2314,1471.5C 2311.17,1484.97 2307.84,1498.3 2304,1511.5C 2289.1,1492.94 2274.6,1474.11 2260.5,1455C 2265.89,1445.48 2273.89,1439.65 2284.5,1437.5 Z M 2248.5,1482.5 C 2250.19,1483.47 2251.69,1484.81 2253,1486.5C 2266,1503.5 2279,1520.5 2292,1537.5C 2288.8,1548.02 2281.64,1554.52 2270.5,1557C 2246.36,1561.52 2235.86,1551.69 2239,1527.5C 2241.7,1512.39 2244.86,1497.39 2248.5,1482.5 Z"/></g>
<g><path style="opacity:1" fill="#ec421e" d="M 1619.5,1265.5 C 1638.84,1265.33 1658.17,1265.5 1677.5,1266C 1673.07,1274.47 1671.9,1283.3 1674,1292.5C 1676.1,1295.47 1678.93,1297.3 1682.5,1298C 1710,1304.93 1725.66,1294.43 1729.5,1266.5C 1749.16,1265.75 1768.82,1265.41 1788.5,1265.5C 1785.07,1284.06 1776.4,1299.56 1762.5,1312C 1754.51,1316.83 1745.84,1319.5 1736.5,1320C 1707.5,1320.67 1678.5,1320.67 1649.5,1320C 1622.76,1318.67 1611.59,1304.84 1616,1278.5C 1617.02,1274.09 1618.19,1269.76 1619.5,1265.5 Z"/></g>
<g><path style="opacity:1" fill="#ec421e" d="M 957.5,1283.5 C 975.167,1283.5 992.833,1283.5 1010.5,1283.5C 1006.83,1298.17 1003.16,1312.84 999.5,1327.5C 981.833,1327.5 964.167,1327.5 946.5,1327.5C 950.164,1312.84 953.831,1298.17 957.5,1283.5 Z"/></g>
<g><path style="opacity:1" fill="#ec421e" d="M 1393.5,1348.5 C 1428.2,1348.05 1462.86,1348.55 1497.5,1350C 1509.33,1351.83 1520.33,1355.83 1530.5,1362C 1544.01,1371.01 1551.01,1383.68 1551.5,1400C 1549.98,1422.94 1541.31,1442.61 1525.5,1459C 1512.05,1468.82 1497.05,1475.15 1480.5,1478C 1497.4,1479.86 1510.57,1487.69 1520,1501.5C 1529.69,1531.73 1524.69,1559.4 1505,1584.5C 1486.89,1602.44 1465.06,1612.94 1439.5,1616C 1431.87,1617.04 1424.2,1617.71 1416.5,1618C 1386.17,1618.5 1355.84,1618.67 1325.5,1618.5C 1327.18,1609.1 1329.18,1599.76 1331.5,1590.5C 1358.5,1590.67 1385.5,1590.5 1412.5,1590C 1439.81,1583.02 1455.64,1565.52 1460,1537.5C 1462.66,1513.95 1452.49,1499.78 1429.5,1495C 1408.84,1494.5 1388.17,1494.33 1367.5,1494.5C 1370.09,1484.57 1372.42,1474.57 1374.5,1464.5C 1396.84,1464.67 1419.17,1464.5 1441.5,1464C 1454.75,1461.96 1465.25,1455.46 1473,1444.5C 1484.45,1427.59 1487.78,1409.26 1483,1389.5C 1477.26,1380.71 1469.1,1376.21 1458.5,1376C 1434.84,1375.5 1411.17,1375.33 1387.5,1375.5C 1389.03,1366.39 1391.03,1357.39 1393.5,1348.5 Z"/></g>
<g><path style="opacity:1" fill="#ec421e" d="M 1578.5,1349.5 C 1744.5,1349.5 1910.5,1349.5 2076.5,1349.5C 2074.04,1358.2 2071.38,1366.87 2068.5,1375.5C 2034.83,1376.17 2001.17,1376.83 1967.5,1377.5C 1961.69,1398.09 1956.52,1418.75 1952,1439.5C 1972.75,1420.6 1996.91,1414.1 2024.5,1420C 2043.5,1423.97 2052,1435.47 2050,1454.5C 2037.85,1501.12 2026.01,1547.78 2014.5,1594.5C 1994.82,1594.83 1975.16,1594.5 1955.5,1593.5C 1967.36,1549.88 1978.36,1506.05 1988.5,1462C 1987.49,1452.5 1982.16,1447.66 1972.5,1447.5C 1958.11,1449.71 1948.28,1457.71 1943,1471.5C 1929.91,1519.86 1918.08,1568.53 1907.5,1617.5C 1887.51,1618.5 1867.51,1618.83 1847.5,1618.5C 1853.45,1594.22 1858.95,1569.89 1864,1545.5C 1839.99,1565.23 1813.15,1570.07 1783.5,1560C 1770.23,1553.62 1764.73,1543.12 1767,1528.5C 1779.87,1478.07 1793.03,1427.74 1806.5,1377.5C 1790.85,1376.5 1775.18,1376.17 1759.5,1376.5C 1739.17,1457.16 1718.84,1537.82 1698.5,1618.5C 1679.83,1618.5 1661.17,1618.5 1642.5,1618.5C 1662.69,1538.06 1683.36,1457.73 1704.5,1377.5C 1697.17,1377.17 1689.83,1376.83 1682.5,1376.5C 1674.76,1376.52 1667.26,1377.18 1660,1378.5C 1639.49,1458.52 1618.99,1538.52 1598.5,1618.5C 1580.17,1618.5 1561.83,1618.5 1543.5,1618.5C 1553.31,1576.11 1563.97,1533.94 1575.5,1492C 1560.5,1491.5 1545.5,1491.33 1530.5,1491.5C 1532.73,1482.18 1535.4,1473.01 1538.5,1464C 1553,1464.81 1567.5,1464.64 1582,1463.5C 1589.97,1434.63 1597.47,1405.63 1604.5,1376.5C 1593.15,1376.83 1581.81,1376.5 1570.5,1375.5C 1573.37,1366.88 1576.04,1358.21 1578.5,1349.5 Z M 1864.5,1376.5 C 1879.17,1376.5 1893.83,1376.5 1908.5,1376.5C 1896.8,1422.29 1884.64,1467.95 1872,1513.5C 1865.04,1532.23 1852.21,1538.4 1833.5,1532C 1830.35,1529.2 1828.69,1525.7 1828.5,1521.5C 1840.03,1473.04 1852.03,1424.71 1864.5,1376.5 Z"/></g>
<g><path style="opacity:1" fill="#ec421e" d="M 1761.5,1600.5 C 1779.18,1600.17 1796.85,1600.5 1814.5,1601.5C 1810.5,1615.5 1806.5,1629.5 1802.5,1643.5C 1784.84,1644.67 1767.18,1644.83 1749.5,1644C 1753.58,1629.53 1757.58,1615.03 1761.5,1600.5 Z"/></g>
<g><path style="opacity:1" fill="#ec421e" d="M 2433.5,1643.5 C 2451.18,1643.17 2468.85,1643.5 2486.5,1644.5C 2482.36,1658.41 2478.52,1672.41 2475,1686.5C 2474.33,1687.17 2473.67,1687.83 2473,1688.5C 2455.89,1688.99 2438.72,1688.49 2421.5,1687C 2425.58,1672.53 2429.58,1658.03 2433.5,1643.5 Z"/></g>
<g><path style="opacity:1" fill="#ec421e" d="M 1917.5,1803.5 C 1929.19,1803.33 1940.85,1803.67 1952.5,1804.5C 1950.29,1817.53 1947.96,1830.53 1945.5,1843.5C 1926.35,1840.97 1914.52,1848.97 1910,1867.5C 1907.58,1877.61 1905.41,1887.78 1903.5,1898C 1903.83,1898.83 1904.17,1899.67 1904.5,1900.5C 1913.45,1899.53 1922.45,1899.19 1931.5,1899.5C 1928.94,1911.81 1926.44,1924.14 1924,1936.5C 1914.25,1937.49 1904.42,1937.82 1894.5,1937.5C 1881.96,1998.18 1869.3,2058.85 1856.5,2119.5C 1836.17,2119.5 1815.83,2119.5 1795.5,2119.5C 1808.04,2058.81 1820.71,1998.14 1833.5,1937.5C 1824.5,1937.5 1815.5,1937.5 1806.5,1937.5C 1808.69,1924.71 1811.69,1912.21 1815.5,1900C 1824.49,1899.5 1833.49,1899.33 1842.5,1899.5C 1845.61,1879.4 1850.44,1859.73 1857,1840.5C 1863.87,1824.3 1875.71,1813.47 1892.5,1808C 1900.94,1806.26 1909.27,1804.76 1917.5,1803.5 Z"/></g>
<g><path style="opacity:1" fill="#ec421e" d="M 762.5,1805.5 C 804.168,1805.33 845.835,1805.5 887.5,1806C 904.546,1805.93 920.546,1809.93 935.5,1818C 949.359,1829.03 956.025,1843.53 955.5,1861.5C 955.403,1885.92 948.237,1907.92 934,1927.5C 920.717,1942.56 904.217,1952.06 884.5,1956C 918.411,1961.93 933.244,1982.1 929,2016.5C 922.045,2083.41 884.878,2117.58 817.5,2119C 777.167,2119.67 736.833,2119.67 696.5,2119C 717.64,2014.47 739.64,1909.97 762.5,1805.5 Z M 821.5,1853.5 C 836.048,1854.11 851.048,1854.61 866.5,1855C 880.737,1859.08 888.07,1868.58 888.5,1883.5C 887.636,1901.4 880.303,1915.9 866.5,1927C 861.828,1929.84 856.828,1931.84 851.5,1933C 834.49,1933.83 817.49,1933.67 800.5,1932.5C 806.446,1906.94 811.946,1881.27 817,1855.5C 818.622,1854.9 820.122,1854.23 821.5,1853.5 Z M 789.5,1982.5 C 806.503,1982.33 823.503,1982.5 840.5,1983C 856.386,1985.55 864.386,1994.89 864.5,2011C 863.764,2026.47 859.264,2040.64 851,2053.5C 843.184,2063.31 833.018,2068.81 820.5,2070C 804.593,2070.17 788.759,2070.67 773,2071.5C 772.667,2071.17 772.333,2070.83 772,2070.5C 777.884,2041.25 783.717,2011.91 789.5,1982.5 Z"/></g>
<g><path style="opacity:1" fill="#ec421e" d="M 1401.5,1805.5 C 1421.98,1805.01 1442.32,1805.51 1462.5,1807C 1448.81,1868.78 1435.65,1930.61 1423,1992.5C 1448.05,1961.57 1473.21,1930.74 1498.5,1900C 1519.51,1899.17 1540.51,1899.33 1561.5,1900.5C 1533.97,1932.86 1506.63,1965.36 1479.5,1998C 1493.81,2038.44 1507.81,2078.94 1521.5,2119.5C 1498.82,2119.83 1476.16,2119.5 1453.5,2118.5C 1443.14,2079.08 1432.48,2039.75 1421.5,2000.5C 1412.55,2039.73 1404.05,2079.06 1396,2118.5C 1375.91,2119.66 1355.74,2119.83 1335.5,2119C 1356.38,2014.42 1378.38,1909.92 1401.5,1805.5 Z"/></g>
<g><path style="opacity:1" fill="#ec421e" d="M 2042.5,1805.5 C 2088.85,1805.06 2135.19,1805.56 2181.5,1807C 2199.73,1807.87 2214.9,1815.03 2227,1828.5C 2233.57,1838.86 2236.41,1850.19 2235.5,1862.5C 2235.52,1885.59 2229.02,1906.59 2216,1925.5C 2202.94,1941.79 2186.11,1952.12 2165.5,1956.5C 2194.11,1960.44 2209.11,1976.77 2210.5,2005.5C 2209.67,2024.47 2205.84,2042.8 2199,2060.5C 2184.53,2090.95 2160.7,2109.45 2127.5,2116C 2118.25,2117.75 2108.92,2118.75 2099.5,2119C 2058.5,2119.5 2017.5,2119.67 1976.5,2119.5C 1998.37,2014.81 2020.37,1910.15 2042.5,1805.5 Z M 2097.5,1854.5 C 2113.84,1854.33 2130.17,1854.5 2146.5,1855C 2158.32,1857.49 2165.49,1864.66 2168,1876.5C 2170.2,1899.93 2161.37,1917.76 2141.5,1930C 2138.23,1931.2 2134.89,1932.2 2131.5,1933C 2114.84,1933.5 2098.17,1933.67 2081.5,1933.5C 2086.83,1907.16 2092.17,1880.83 2097.5,1854.5 Z M 2070.5,1982.5 C 2087.5,1982.33 2104.5,1982.5 2121.5,1983C 2137.59,1985.66 2145.25,1995.16 2144.5,2011.5C 2144.27,2027.76 2139.44,2042.43 2130,2055.5C 2122.22,2063.64 2112.72,2068.47 2101.5,2070C 2085.79,2070.18 2070.12,2070.68 2054.5,2071.5C 2053.91,2071.29 2053.41,2070.96 2053,2070.5C 2058.37,2041.13 2064.21,2011.8 2070.5,1982.5 Z"/></g>
<g><path style="opacity:1" fill="#ec421e" d="M 2915.5,1805.5 C 2935.83,1805.5 2956.17,1805.5 2976.5,1805.5C 2954.4,1909.83 2932.23,2014.17 2910,2118.5C 2890.91,2119.66 2871.74,2119.83 2852.5,2119C 2852.04,2118.59 2851.71,2118.09 2851.5,2117.5C 2853.84,2110.28 2855.34,2102.95 2856,2095.5C 2836.01,2120.21 2810.51,2128.71 2779.5,2121C 2763.98,2114.79 2755.14,2103.29 2753,2086.5C 2752.17,2073.47 2752.51,2060.47 2754,2047.5C 2759.01,2017.45 2765.68,1987.79 2774,1958.5C 2779.65,1939.68 2789.48,1923.52 2803.5,1910C 2823.99,1895.09 2846.33,1891.75 2870.5,1900C 2879.39,1904.72 2886.05,1911.55 2890.5,1920.5C 2898.97,1882.16 2907.3,1843.83 2915.5,1805.5 Z M 2858.5,1933.5 C 2869.57,1931.61 2876.73,1935.94 2880,1946.5C 2880.67,1953.17 2880.67,1959.83 2880,1966.5C 2875.38,1996.64 2868.72,2026.3 2860,2055.5C 2857.26,2064.14 2853.1,2071.98 2847.5,2079C 2839.34,2085.89 2830.34,2087.23 2820.5,2083C 2815.04,2076.77 2812.71,2069.44 2813.5,2061C 2817.04,2028.35 2823.2,1996.18 2832,1964.5C 2834.82,1955.35 2839.32,1947.19 2845.5,1940C 2849.57,1937.15 2853.91,1934.99 2858.5,1933.5 Z"/></g>
<g><path style="opacity:1" fill="#ec421e" d="M 1053.5,1895.5 C 1073.2,1894.64 1092.53,1896.81 1111.5,1902C 1126.67,1906.84 1135.84,1917 1139,1932.5C 1139.79,1942.21 1139.45,1951.87 1138,1961.5C 1129.33,2002.83 1120.67,2044.17 1112,2085.5C 1110.5,2096.14 1109.17,2106.81 1108,2117.5C 1098.73,2118.82 1089.23,2119.49 1079.5,2119.5C 1070.17,2119.33 1060.83,2119.17 1051.5,2119C 1051.04,2118.59 1050.71,2118.09 1050.5,2117.5C 1051.93,2109.03 1053.26,2100.53 1054.5,2092C 1054.17,2091.5 1053.83,2091 1053.5,2090.5C 1044.78,2101.73 1034.11,2110.56 1021.5,2117C 1004.87,2123.95 987.866,2125.28 970.5,2121C 955.086,2115.58 946.252,2104.75 944,2088.5C 941.678,2060.42 948.345,2034.76 964,2011.5C 982.397,1991.72 1005.23,1981.22 1032.5,1980C 1046.75,1979.54 1060.91,1978.71 1075,1977.5C 1077.26,1967.25 1079.1,1956.91 1080.5,1946.5C 1080.36,1938.69 1076.69,1933.52 1069.5,1931C 1060.28,1929.38 1051.62,1930.71 1043.5,1935C 1036.08,1943.02 1031.74,1952.52 1030.5,1963.5C 1010.5,1963.5 990.5,1963.5 970.5,1963.5C 976.5,1929 996.5,1907.5 1030.5,1899C 1038.28,1897.59 1045.95,1896.42 1053.5,1895.5 Z M 1051.5,2013.5 C 1056.5,2013.5 1061.5,2013.5 1066.5,2013.5C 1064.6,2032.77 1059.43,2051.1 1051,2068.5C 1040.65,2084.06 1026.81,2088.56 1009.5,2082C 1004.78,2075.24 1003.28,2067.74 1005,2059.5C 1006.08,2047.92 1009.75,2037.25 1016,2027.5C 1020.88,2021.62 1027.05,2017.79 1034.5,2016C 1040.3,2015.11 1045.97,2014.28 1051.5,2013.5 Z"/></g>
<g><path style="opacity:1" fill="#ec421e" d="M 1290.5,1895.5 C 1304.97,1894.11 1318.3,1897.28 1330.5,1905C 1339.01,1912.19 1343.68,1921.36 1344.5,1932.5C 1331.89,1994.9 1318.89,2057.24 1305.5,2119.5C 1285.17,2119.5 1264.83,2119.5 1244.5,2119.5C 1254.35,2071.45 1264.51,2023.45 1275,1975.5C 1276.63,1967.74 1277.8,1959.9 1278.5,1952C 1278.8,1939.97 1272.97,1933.81 1261,1933.5C 1248.16,1933.99 1239.49,1940.33 1235,1952.5C 1221.75,2007.92 1209.58,2063.59 1198.5,2119.5C 1178.17,2119.5 1157.83,2119.5 1137.5,2119.5C 1152.42,2046.38 1167.92,1973.38 1184,1900.5C 1204.09,1899.51 1224.26,1899.17 1244.5,1899.5C 1243.75,1906.44 1242.41,1913.27 1240.5,1920C 1240.83,1920.5 1241.17,1921 1241.5,1921.5C 1254.4,1906.22 1270.73,1897.55 1290.5,1895.5 Z"/></g>
<g><path style="opacity:1" fill="#ec421e" d="M 1714.5,1895.5 C 1733.01,1894.52 1751.01,1897.02 1768.5,1903C 1785.91,1911.76 1795.41,1925.93 1797,1945.5C 1796.83,1987.37 1788.83,2027.7 1773,2066.5C 1761.02,2094.73 1740.19,2112.56 1710.5,2120C 1685.2,2126.37 1660.2,2125.37 1635.5,2117C 1615.83,2107.95 1605.66,2092.45 1605,2070.5C 1605.74,2030.14 1613.41,1991.14 1628,1953.5C 1644.92,1916.41 1673.75,1897.08 1714.5,1895.5 Z M 1712.5,1934.5 C 1726.13,1932.67 1734.3,1938.33 1737,1951.5C 1737.44,1958.86 1737.11,1966.19 1736,1973.5C 1731.32,2001.23 1724.99,2028.56 1717,2055.5C 1713.97,2065.07 1708.8,2073.24 1701.5,2080C 1691.63,2085.43 1681.63,2085.77 1671.5,2081C 1666.64,2074.72 1664.64,2067.56 1665.5,2059.5C 1668.6,2026.16 1675.1,1993.49 1685,1961.5C 1688.86,1946.81 1698.02,1937.81 1712.5,1934.5 Z"/></g>
<g><path style="opacity:1" fill="#ec421e" d="M 2333.5,1895.5 C 2354.31,1894.43 2374.64,1896.93 2394.5,1903C 2412.26,1910.61 2420.93,1924.11 2420.5,1943.5C 2420.37,1948.54 2419.87,1953.54 2419,1958.5C 2410.92,1998.22 2402.59,2037.88 2394,2077.5C 2391.51,2091.42 2389.68,2105.42 2388.5,2119.5C 2369.5,2119.5 2350.5,2119.5 2331.5,2119.5C 2332.75,2109.84 2333.58,2100.18 2334,2090.5C 2312.51,2118.11 2284.67,2128.27 2250.5,2121C 2236.55,2115.97 2228.05,2106.13 2225,2091.5C 2221.77,2064.66 2227.1,2039.66 2241,2016.5C 2255.33,1997.22 2274.49,1985.72 2298.5,1982C 2317.43,1979.75 2336.43,1978.59 2355.5,1978.5C 2358.86,1966.04 2360.36,1953.37 2360,1940.5C 2358.42,1935.26 2354.92,1932.09 2349.5,1931C 2332.89,1927.22 2321.39,1933.05 2315,1948.5C 2313.42,1953.34 2311.92,1958.17 2310.5,1963C 2290.84,1963.5 2271.17,1963.67 2251.5,1963.5C 2257.48,1929.02 2277.48,1907.52 2311.5,1899C 2318.93,1897.5 2326.26,1896.33 2333.5,1895.5 Z M 2331.5,2013.5 C 2336.83,2013.5 2342.17,2013.5 2347.5,2013.5C 2345.21,2033.14 2339.71,2051.8 2331,2069.5C 2321.14,2083.78 2307.98,2088.28 2291.5,2083C 2288.53,2080.9 2286.7,2078.07 2286,2074.5C 2283.89,2056.61 2287.89,2040.28 2298,2025.5C 2300.74,2023.21 2303.58,2021.05 2306.5,2019C 2314.7,2015.93 2323.03,2014.1 2331.5,2013.5 Z"/></g>
<g><path style="opacity:1" fill="#ec421e" d="M 2572.5,1895.5 C 2575.17,1895.5 2577.83,1895.5 2580.5,1895.5C 2577.22,1913.91 2573.55,1932.24 2569.5,1950.5C 2533.84,1946.38 2512.34,1961.72 2505,1996.5C 2496.33,2037.17 2487.67,2077.83 2479,2118.5C 2468.91,2119.16 2458.74,2119.49 2448.5,2119.5C 2438.01,2119.66 2427.68,2119.16 2417.5,2118C 2433.38,2045.62 2448.88,1973.12 2464,1900.5C 2483.09,1899.34 2502.26,1899.17 2521.5,1900C 2520.71,1908.82 2519.04,1917.65 2516.5,1926.5C 2521.96,1921.55 2527.63,1916.05 2533.5,1910C 2545.28,1901.69 2558.28,1896.85 2572.5,1895.5 Z"/></g>
<g><path style="opacity:1" fill="#ec421e" d="M 2664.5,1895.5 C 2681.14,1894.79 2697.47,1896.62 2713.5,1901C 2733.18,1908.36 2744.35,1922.52 2747,1943.5C 2748.33,1966.86 2746,1989.86 2740,2012.5C 2735.71,2035.71 2728.04,2057.71 2717,2078.5C 2704.12,2100.37 2685.29,2114.2 2660.5,2120C 2636.3,2126.25 2612.3,2125.58 2588.5,2118C 2569.54,2111.04 2558.71,2097.54 2556,2077.5C 2555.19,2037.71 2561.52,1999.04 2575,1961.5C 2590.41,1919.88 2620.24,1897.88 2664.5,1895.5 Z M 2662.5,1934.5 C 2668.77,1934.32 2674.77,1935.49 2680.5,1938C 2684.37,1941.25 2686.53,1945.42 2687,1950.5C 2684.9,1989.25 2677.23,2026.92 2664,2063.5C 2656.81,2081.01 2643.98,2087.51 2625.5,2083C 2617.39,2077.55 2614.05,2069.88 2615.5,2060C 2619,2025.82 2625.84,1992.32 2636,1959.5C 2640.61,1946.38 2649.44,1938.05 2662.5,1934.5 Z"/></g>
<g><path style="opacity:1" fill="#ec421e" d="M 3142.5,1958.5 C 3133.96,1998.02 3125.46,2037.69 3117,2077.5C 3114.35,2091.4 3112.51,2105.4 3111.5,2119.5C 3092.13,2119.4 3072.8,2119.56 3053.5,2120C 3052.92,2119.11 3052.59,2118.11 3052.5,2117C 3053.87,2109.19 3054.71,2101.35 3055,2093.5C 3039.86,2112.98 3020.03,2123.32 2995.5,2124.5C 2959.24,2123.99 2942.74,2105.65 2946,2069.5C 2950.43,2014.74 2979.93,1984.9 3034.5,1980C 3045.34,1979.6 3056.17,1979.1 3067,1978.5C 3070.09,1978.52 3073.09,1978.86 3076,1979.5C 3081.37,1965.93 3083.04,1951.93 3081,1937.5C 3079.13,1935.29 3076.96,1933.46 3074.5,1932C 3056.82,1926.32 3044.32,1931.82 3037,1948.5C 3035.29,1953.3 3033.79,1958.14 3032.5,1963C 3012.84,1963.5 2993.17,1963.67 2973.5,1963.5C 2981.13,1924.38 3004.79,1902.21 3044.5,1897C 3068.97,1893.71 3092.97,1895.71 3116.5,1903C 3128.85,1908.02 3137.02,1916.85 3141,1929.5C 3142.32,1939.12 3142.82,1948.78 3142.5,1958.5 Z M 3053.5,2013.5 C 3058.83,2013.5 3064.17,2013.5 3069.5,2013.5C 3067.41,2033.19 3061.91,2051.86 3053,2069.5C 3043.14,2083.78 3029.98,2088.28 3013.5,2083C 3010.53,2080.9 3008.7,2078.07 3008,2074.5C 3006.13,2058.51 3009.13,2043.51 3017,2029.5C 3021.26,2023.78 3026.76,2019.61 3033.5,2017C 3040.23,2015.38 3046.9,2014.22 3053.5,2013.5 Z"/></g>
<g><path style="opacity:1" fill="#fefefe" d="M 3142.5,1958.5 C 3142.5,2013.83 3142.5,2069.17 3142.5,2124.5C 3093.5,2124.5 3044.5,2124.5 2995.5,2124.5C 3020.03,2123.32 3039.86,2112.98 3055,2093.5C 3054.71,2101.35 3053.87,2109.19 3052.5,2117C 3052.59,2118.11 3052.92,2119.11 3053.5,2120C 3072.8,2119.56 3092.13,2119.4 3111.5,2119.5C 3112.51,2105.4 3114.35,2091.4 3117,2077.5C 3125.46,2037.69 3133.96,1998.02 3142.5,1958.5 Z"/></g>
</svg>
