<svg xmlns="http://www.w3.org/2000/svg" xmlns:xlink="http://www.w3.org/1999/xlink" viewBox="0 0 161 47" version="1.1" width="100px" height="30px">
    <!-- Generator: Sketch 52.6 (67491) - http://www.bohemiancoding.com/sketch -->
    <title>basf</title>
    <desc>Created with Sketch.</desc>
    <g id="basf" stroke="none" stroke-width="1" fill="none" fill-rule="evenodd" fill-color-id="-1" stroke-color-id="-1" recolor-fill="true" recolor-stroke="true">
        <g fill="#000000" fill-rule="nonzero" id="Shape" fill-color-id="0" stroke-color-id="-1" recolor-fill="true" recolor-stroke="true">
            <path d="M122.955,14.145 C122.517,5.919 117.004,0.23 104.752,0.23 C93.725,0.23 85.672,4.868 85.672,14.232 C85.672,29.898 111.315,24.122 111.752,33.135 C111.84,35.673 108.602,37.073 105.014,37.073 C103.614,37.073 101.338,36.723 100.202,36.023 C98.975,35.323 98.1,33.397 97.575,30.859 L84.448,30.859 C84.624,40.923 92.587,46.525 104.227,46.525 C116.303,46.525 124.18,41.886 124.268,31.647 C124.442,16.332 98.1,19.57 98.1,13.094 C98.1,9.594 100.901,8.981 104.051,8.981 C105.539,8.981 106.764,9.156 107.815,9.769 C108.864,10.294 110.352,12.657 110.616,14.144 L122.955,14.144 L122.955,14.145 Z M140.195,45.563 L140.195,31.561 L158.135,31.561 L158.135,21.321 L140.195,21.321 L140.195,12.57 L160.498,12.57 L160.498,1.368 L126.893,1.368 L126.893,45.563 L140.195,45.563 Z M31.5,22.372 C34.301,20.534 37.626,18.258 37.626,12.745 C37.626,3.993 30.1,1.368 20.123,1.368 L0.257,1.368 L0.257,45.563 L20.561,45.563 C32.025,45.563 40.077,42.413 40.077,32.611 C40.077,26.485 36.314,23.597 31.5,22.372 Z M13.56,11.607 L20.211,11.607 C23.273,11.607 25.812,11.957 25.812,15.458 C25.812,17.996 23.974,18.958 21.173,18.958 L13.56,18.958 L13.56,11.607 Z M21.524,35.849 L13.56,35.849 L13.56,27.361 L19.773,27.361 C24.411,27.361 27.299,27.448 27.299,31.299 C27.3,34.624 25.024,35.849 21.524,35.849 Z M69.833,1.368 L55.13,1.368 L39.377,45.563 L52.767,45.563 L54.692,39 L70.007,39 L71.845,45.563 L85.672,45.563 L69.833,1.368 Z M57.405,29.811 L62.306,13.533 L67.294,29.811 L57.405,29.811 Z" fill-color-id="0" stroke-color-id="-1" recolor-fill="true" recolor-stroke="true" fill="#000000"/>
        </g>
    </g>
</svg>