<svg xmlns="http://www.w3.org/2000/svg" xmlns:xlink="http://www.w3.org/1999/xlink" viewBox="0 0 2500 1898" version="1.1" width="1000px" height="760px">
    <!-- Generator: Sketch 52.6 (67491) - http://www.bohemiancoding.com/sketch -->
    <title>pwc</title>
    <desc>Created with Sketch.</desc>
    <g id="Page-1" stroke="none" stroke-width="1" fill="none" fill-rule="evenodd" fill-color-id="-1" stroke-color-id="-1" recolor-fill="true" recolor-stroke="true">
        <g id="pwc" fill-color-id="-1" stroke-color-id="-1" recolor-fill="true" recolor-stroke="true">
            <polygon id="Path" fill="#E669A2" points="2500 814.7575 1590.66 814.7575 1590.66 582.0075 2500 582.0075" fill-color-id="1" stroke-color-id="-1" recolor-fill="true" recolor-stroke="true"/>
            <polygon id="Path" fill="#F3BE26" points="2381.8875 814.7575 1590.66 814.7575 1590.66 232.6275 2381.8875 232.6275" fill-color-id="2" stroke-color-id="-1" recolor-fill="true" recolor-stroke="true"/>
            <polygon id="Path" fill="#EE9C34" points="2054.995 814.7575 1590.66 814.7575 1590.66 0 2054.995 0" fill-color-id="3" stroke-color-id="-1" recolor-fill="true" recolor-stroke="true"/>
            <polygon id="Path" fill="#F3BC87" points="2146.345 814.7575 1590.66 814.7575 1590.66 90.9125 2146.345 90.9125" fill-color-id="4" stroke-color-id="-1" recolor-fill="true" recolor-stroke="true"/>
            <polygon id="Path" fill="#E3721C" points="1590.5325 91.05 1590.5325 814.6825 2054.945 814.6825 2054.945 91.05" fill-color-id="5" stroke-color-id="-1" recolor-fill="true" recolor-stroke="true"/>
            <polygon id="Path" fill="#AD1B02" points="1125.04 814.7575 1590.66 814.7575 1590.66 931.145 1125.04 931.145" fill-color-id="6" stroke-color-id="-1" recolor-fill="true" recolor-stroke="true"/>
            <polygon id="Path" fill="#E88D14" points="1590.5325 232.5 1590.5325 814.6825 2146.6125 814.6825 2146.6125 232.5" fill-color-id="7" stroke-color-id="-1" recolor-fill="true" recolor-stroke="true"/>
            <polygon id="Path" fill="#D85604" points="1590.5325 232.5 1590.5325 814.6825 2054.945 814.6825 2054.945 232.5" fill-color-id="8" stroke-color-id="-1" recolor-fill="true" recolor-stroke="true"/>
            <polygon id="Path" fill="#C14303" points="1881.0325 814.7575 1590.66 814.7575 1590.66 465.355 1881.0325 465.355" fill-color-id="9" stroke-color-id="-1" recolor-fill="true" recolor-stroke="true"/>
            <polygon id="Path" fill="#DB4E18" points="1590.5325 582.1725 1590.5325 814.6825 2382.155 814.6825 2382.155 582.1725 1590.5325 582.1725" fill-color-id="10" stroke-color-id="-1" recolor-fill="true" recolor-stroke="true"/>
            <polygon id="Path" fill="#D1390D" points="1590.5325 582.1725 1590.5325 814.6825 2146.6125 814.6825 2146.6125 582.1725 1590.5325 582.1725" fill-color-id="11" stroke-color-id="-1" recolor-fill="true" recolor-stroke="true"/>
            <polygon id="Path" fill="#C22303" points="1590.5325 582.1725 1590.5325 814.6825 2054.945 814.6825 2054.945 582.1725 1590.5325 582.1725" fill-color-id="12" stroke-color-id="-1" recolor-fill="true" recolor-stroke="true"/>
            <polygon id="Path" fill="#AD1B02" points="1590.5325 582.1725 1590.5325 814.6825 1881.32 814.6825 1881.32 582.1725 1590.5325 582.1725" fill-color-id="6" stroke-color-id="-1" recolor-fill="true" recolor-stroke="true"/>
            <path d="M1691.9,1253.1225 C1612.6775,1267.2075 1570.425,1327.065 1570.425,1430.9375 C1570.425,1536.5725 1626.76,1606.995 1709.5075,1606.995 C1750,1606.995 1785.21,1592.91 1859.1525,1555.9375 L1859.1525,1642.2075 C1769.365,1684.4575 1716.5475,1695.0225 1646.1275,1695.0225 C1566.9025,1695.0225 1510.56,1675.6575 1466.5475,1628.1225 C1420.7725,1582.345 1396.125,1522.4875 1396.125,1453.8225 C1396.125,1304.1775 1508.8,1200.305 1672.5325,1200.305 C1779.9275,1200.305 1855.6325,1251.3625 1855.6325,1323.545 C1855.6325,1371.08 1820.4175,1404.5325 1769.3625,1404.5325 C1742.955,1404.5325 1721.825,1395.73 1691.8975,1379.8825 L1691.9,1253.1225 Z M1295.775,1453.825 C1367.9575,1364.0375 1394.3675,1327.065 1394.3675,1283.05 C1394.3675,1239.035 1359.155,1200.3 1309.86,1200.3 C1281.69,1200.3 1255.285,1216.1475 1242.96,1230.2325 L1242.96,1415.09 L1125,1573.54 L1125,1214.39 L1012.325,1214.39 L825.7025,1522.49 L825.7025,1214.39 L762.32,1214.39 L591.545,1253.125 L591.545,1297.1375 L684.855,1305.9375 L684.855,1687.9825 L802.8125,1687.9825 L982.39,1392.2075 L982.39,1687.9825 L1114.4325,1687.9825 L1295.775,1453.825 Z M234.155,1628.1225 L260.5625,1628.1225 C355.63,1628.1225 408.4475,1570.0225 408.4475,1453.8225 C408.4475,1356.995 366.1975,1304.1775 286.9675,1304.1775 C276.405,1304.1775 260.56,1305.9375 234.1525,1311.22 L234.1525,1628.1225 L234.155,1628.12 L234.155,1628.1225 Z M234.155,1835.8675 L311.6175,1853.4725 L311.6175,1897.485 L7.0425,1897.485 L7.0425,1853.4725 L77.4625,1835.8675 L77.4625,1304.175 L0,1304.175 L0,1260.1625 L184.8575,1203.825 L234.1575,1203.825 L234.1575,1267.2075 C320.4225,1214.39 350.3525,1205.5875 396.125,1205.5875 C498.24,1205.5875 575.7025,1300.6575 575.7025,1432.7025 C575.7025,1584.11 471.83,1687.9825 313.3775,1687.9825 C295.7725,1687.9825 265.8425,1686.2225 234.155,1684.4625 L234.155,1835.8675 Z" id="Shape" fill="#000000" fill-rule="nonzero" fill-color-id="0" stroke-color-id="-1" recolor-fill="true" recolor-stroke="true"/>
        </g>
    </g>
</svg>